<svg data-v-fde0c5aa="" xmlns="http://www.w3.org/2000/svg" viewBox="0 0 300 300" class="font"><!----><defs data-v-fde0c5aa=""><!----></defs><rect data-v-fde0c5aa="" fill="transparent" x="0" y="0" width="300px" height="300px" class="logo-background-square"></rect><defs data-v-fde0c5aa=""><linearGradient data-v-fde0c5aa="" gradientTransform="rotate(25)" id="af94adaf-0680-4605-8dcc-d9fd45775f1c" x1="0%" y1="0%" x2="100%" y2="0%"><stop data-v-fde0c5aa="" offset="0%" stop-color="#0076DD" stop-opacity="1"></stop><stop data-v-fde0c5aa="" offset="100%" stop-color="#00CDE9" stop-opacity="1"></stop></linearGradient></defs><g data-v-fde0c5aa="" id="4c8b2ac4-0731-4dd7-88aa-17b1602fbb82" fill="url(#af94adaf-0680-4605-8dcc-d9fd45775f1c)" transform="matrix(2.182539616462477,0,0,2.182539616462477,39.454365095884384,131.5575396164625)"><path d="M2.25 14.84Q1.44 14.84 0.85 14.43Q0.25 14.01 0.25 13.06L0.25 13.06Q0.25 11.91 1.44 11.49L1.44 11.49Q1.11 11.31 0.89 11.03Q0.67 10.74 0.67 10.36L0.67 10.36Q0.67 9.81 1.06 9.53Q1.44 9.25 1.90 9.14L1.90 9.14Q1.44 8.81 1.18 8.32Q0.91 7.83 0.91 7.24L0.91 7.24Q0.91 6.06 1.71 5.41Q2.51 4.76 3.89 4.76L3.89 4.76Q4.66 4.76 5.29 5.01L5.29 5.01Q6.20 4.58 6.36 3.74L6.36 3.74L7.53 3.74Q7.53 4.40 7.15 4.87Q6.76 5.35 6.10 5.50L6.10 5.50Q6.89 6.20 6.89 7.24L6.89 7.24Q6.89 8.41 6.08 9.06Q5.28 9.72 3.89 9.72L3.89 9.72L2.72 9.72Q2.34 9.72 2.14 9.88Q1.93 10.05 1.93 10.32L1.93 10.32Q1.93 10.58 2.14 10.75Q2.34 10.92 2.72 10.92L2.72 10.92L5.67 10.92Q6.54 10.92 7.04 11.45Q7.55 11.97 7.55 12.71L7.55 12.71Q7.55 13.24 7.31 13.73Q7.07 14.22 6.54 14.53Q6.02 14.84 5.22 14.84L5.22 14.84L2.25 14.84ZM3.91 8.76Q4.77 8.76 5.22 8.37Q5.67 7.97 5.67 7.24L5.67 7.24Q5.67 6.51 5.22 6.11Q4.77 5.71 3.91 5.71L3.91 5.71Q3.04 5.71 2.59 6.11Q2.14 6.51 2.14 7.24L2.14 7.24Q2.14 7.97 2.59 8.37Q3.04 8.76 3.91 8.76L3.91 8.76ZM2.37 13.85L5.25 13.85Q5.71 13.85 6.02 13.59Q6.33 13.34 6.33 12.92L6.33 12.92Q6.33 12.50 6.08 12.26Q5.84 12.01 5.43 12.01L5.43 12.01L2.37 12.01Q1.96 12.01 1.72 12.26Q1.48 12.50 1.48 12.92L1.48 12.92Q1.48 13.34 1.72 13.59Q1.96 13.85 2.37 13.85L2.37 13.85ZM11.84 12.46Q10.07 12.46 9.20 11.52Q8.33 10.58 8.33 8.61L8.33 8.61Q8.33 6.64 9.20 5.70Q10.07 4.76 11.84 4.76L11.84 4.76Q13.44 4.76 14.23 5.61Q15.02 6.45 15.02 8.33L15.02 8.33L15.02 8.95L9.60 8.95Q9.67 10.22 10.21 10.83Q10.75 11.44 11.84 11.44L11.84 11.44Q12.73 11.44 13.27 11.03Q13.82 10.63 13.82 9.79L13.82 9.79L15.02 9.79Q15.02 11.07 14.13 11.77Q13.24 12.46 11.84 12.46L11.84 12.46ZM9.63 7.92L13.73 7.92Q13.73 5.78 11.84 5.78L11.84 5.78Q10.79 5.78 10.27 6.29Q9.74 6.79 9.63 7.92L9.63 7.92ZM16.51 12.29L16.51 4.93L17.44 4.93L17.58 5.92L17.68 5.92Q18.49 4.76 20.16 4.76L20.16 4.76Q21.27 4.76 21.86 5.35Q22.46 5.95 22.46 7.27L22.46 7.27L22.46 12.29L21.22 12.29L21.22 7.35Q21.22 6.47 20.83 6.13Q20.44 5.78 19.70 5.78L19.70 5.78Q19.17 5.78 18.72 6.04Q18.27 6.30 18.00 6.79Q17.74 7.28 17.74 7.94L17.74 7.94L17.74 12.29L16.51 12.29ZM27.41 12.46Q25.63 12.46 24.77 11.52Q23.90 10.58 23.90 8.61L23.90 8.61Q23.90 6.64 24.77 5.70Q25.63 4.76 27.41 4.76L27.41 4.76Q29.01 4.76 29.80 5.61Q30.59 6.45 30.59 8.33L30.59 8.33L30.59 8.95L25.17 8.95Q25.24 10.22 25.78 10.83Q26.32 11.44 27.41 11.44L27.41 11.44Q28.29 11.44 28.84 11.03Q29.39 10.63 29.39 9.79L29.39 9.79L30.59 9.79Q30.59 11.07 29.70 11.77Q28.81 12.46 27.41 12.46L27.41 12.46ZM25.20 7.92L29.30 7.92Q29.30 5.78 27.41 5.78L27.41 5.78Q26.36 5.78 25.84 6.29Q25.31 6.79 25.20 7.92L25.20 7.92ZM32.07 12.29L32.07 4.93L33.01 4.93L33.15 6.03L33.24 6.03Q33.45 5.49 33.87 5.12Q34.29 4.76 34.97 4.76L34.97 4.76Q35.21 4.76 35.40 4.81Q35.59 4.86 35.63 4.87L35.63 4.87L35.63 6.06L35.11 6.06Q34.33 6.06 33.82 6.52Q33.31 6.97 33.31 7.94L33.31 7.94L33.31 12.29L32.07 12.29ZM38.74 12.46Q37.79 12.46 37.04 12.01Q36.30 11.56 36.30 10.39L36.30 10.39Q36.30 8.97 37.56 8.45Q38.82 7.92 41.20 7.92L41.20 7.92L41.20 7.11Q41.20 6.47 40.84 6.13Q40.47 5.78 39.52 5.78L39.52 5.78Q38.63 5.78 38.24 6.12Q37.86 6.45 37.86 6.94L37.86 6.94L37.86 7.11L36.67 7.11Q36.65 7.03 36.65 6.80L36.65 6.80Q36.65 5.82 37.46 5.29Q38.28 4.76 39.63 4.76L39.63 4.76Q41.01 4.76 41.72 5.33Q42.43 5.91 42.43 6.96L42.43 6.96L42.43 10.95Q42.43 11.20 42.57 11.32Q42.71 11.44 42.92 11.44L42.92 11.44L43.48 11.44L43.48 12.24Q43.12 12.40 42.53 12.40L42.53 12.40Q42.06 12.40 41.73 12.12Q41.41 11.83 41.30 11.35L41.30 11.35L41.20 11.35Q40.82 11.87 40.17 12.17Q39.52 12.46 38.74 12.46L38.74 12.46ZM39.06 11.44Q39.61 11.44 40.10 11.21Q40.59 10.99 40.89 10.55Q41.20 10.11 41.20 9.48L41.20 9.48L41.20 8.95Q39.40 8.95 38.49 9.23Q37.59 9.52 37.59 10.32L37.59 10.32Q37.59 10.92 37.96 11.18Q38.33 11.44 39.06 11.44L39.06 11.44ZM46.19 12.45Q45.43 12.45 45.08 12.00Q44.73 11.55 44.73 10.89L44.73 10.89L44.73 5.95L43.83 5.95L43.83 4.93L44.74 4.93L45.01 2.88L45.96 2.88L45.96 4.93L47.21 4.93L47.21 5.95L45.96 5.95L45.96 10.78Q45.96 11.44 46.58 11.44L46.58 11.44L47.21 11.44L47.21 12.25Q47.03 12.33 46.73 12.39Q46.44 12.45 46.19 12.45L46.19 12.45ZM48.41 3.54L48.41 2.17L49.64 2.17L49.64 3.54L48.41 3.54ZM48.41 12.29L48.41 4.93L49.64 4.93L49.64 12.29L48.41 12.29ZM53.47 12.29L50.76 4.93L52.07 4.93L53.37 8.61Q53.55 9.13 53.79 9.90Q54.03 10.67 54.10 10.92L54.10 10.92L54.17 10.92Q54.24 10.68 54.46 9.93Q54.68 9.18 54.88 8.61L54.88 8.61L56.17 4.93L57.40 4.93L54.70 12.29L53.47 12.29ZM61.64 12.46Q59.86 12.46 59.00 11.52Q58.13 10.58 58.13 8.61L58.13 8.61Q58.13 6.64 59.00 5.70Q59.86 4.76 61.64 4.76L61.64 4.76Q63.24 4.76 64.03 5.61Q64.82 6.45 64.82 8.33L64.82 8.33L64.82 8.95L59.40 8.95Q59.47 10.22 60.01 10.83Q60.55 11.44 61.64 11.44L61.64 11.44Q62.52 11.44 63.07 11.03Q63.62 10.63 63.62 9.79L63.62 9.79L64.82 9.79Q64.82 11.07 63.93 11.77Q63.04 12.46 61.64 12.46L61.64 12.46ZM59.43 7.92L63.53 7.92Q63.53 5.78 61.64 5.78L61.64 5.78Q60.59 5.78 60.07 6.29Q59.54 6.79 59.43 7.92L59.43 7.92ZM65.46 12.29L69.19 2.69L70.88 2.69L74.61 12.29L73.19 12.29L72.23 9.73L67.77 9.73L66.84 12.29L65.46 12.29ZM68.21 8.57L71.79 8.57L70.67 5.57L70.03 3.84L69.96 3.84L69.33 5.54L68.21 8.57ZM75.91 12.29L75.91 5.95L74.83 5.95L74.83 4.93L75.91 4.93L75.91 3.75Q75.91 3.02 76.27 2.54Q76.64 2.06 77.50 2.06L77.50 2.06Q77.78 2.06 78.07 2.11Q78.36 2.16 78.55 2.23L78.55 2.23L78.55 3.08L77.83 3.08Q77.14 3.08 77.14 3.75L77.14 3.75L77.14 4.93L78.55 4.93L78.55 5.95L77.14 5.95L77.14 12.29L75.91 12.29ZM79.53 12.29L79.53 4.93L80.47 4.93L80.61 6.03L80.70 6.03Q80.91 5.49 81.33 5.12Q81.75 4.76 82.43 4.76L82.43 4.76Q82.67 4.76 82.86 4.81Q83.05 4.86 83.09 4.87L83.09 4.87L83.09 6.06L82.57 6.06Q81.79 6.06 81.28 6.52Q80.77 6.97 80.77 7.94L80.77 7.94L80.77 12.29L79.53 12.29ZM84.20 3.54L84.20 2.17L85.43 2.17L85.43 3.54L84.20 3.54ZM84.20 12.29L84.20 4.93L85.43 4.93L85.43 12.29L84.20 12.29ZM90.10 12.46Q88.42 12.46 87.64 11.53Q86.86 10.60 86.86 8.61L86.86 8.61Q86.86 6.64 87.65 5.70Q88.44 4.76 90.10 4.76L90.10 4.76Q91.62 4.76 92.32 5.49Q93.02 6.22 93.02 7.66L93.02 7.66L91.76 7.66Q91.76 6.66 91.40 6.22Q91.04 5.78 90.10 5.78L90.10 5.78Q89.08 5.78 88.61 6.45Q88.13 7.11 88.13 8.61L88.13 8.61L88.13 8.67Q88.13 10.15 88.59 10.79Q89.05 11.44 90.10 11.44L90.10 11.44Q91.03 11.44 91.43 10.97Q91.83 10.50 91.83 9.56L91.83 9.56L93.02 9.56Q93.02 10.82 92.30 11.64Q91.59 12.46 90.10 12.46L90.10 12.46ZM96.31 12.46Q95.35 12.46 94.61 12.01Q93.87 11.56 93.87 10.39L93.87 10.39Q93.87 8.97 95.13 8.45Q96.39 7.92 98.77 7.92L98.77 7.92L98.77 7.11Q98.77 6.47 98.41 6.13Q98.04 5.78 97.09 5.78L97.09 5.78Q96.19 5.78 95.81 6.12Q95.42 6.45 95.42 6.94L95.42 6.94L95.42 7.11L94.23 7.11Q94.22 7.03 94.22 6.80L94.22 6.80Q94.22 5.82 95.03 5.29Q95.84 4.76 97.20 4.76L97.20 4.76Q98.57 4.76 99.29 5.33Q100.00 5.91 100.00 6.96L100.00 6.96L100.00 10.95Q100.00 11.20 100.14 11.32Q100.28 11.44 100.49 11.44L100.49 11.44L101.05 11.44L101.05 12.24Q100.69 12.40 100.10 12.40L100.10 12.40Q99.62 12.40 99.30 12.12Q98.98 11.83 98.87 11.35L98.87 11.35L98.77 11.35Q98.39 11.87 97.74 12.17Q97.09 12.46 96.31 12.46L96.31 12.46ZM96.63 11.44Q97.17 11.44 97.66 11.21Q98.15 10.99 98.46 10.55Q98.77 10.11 98.77 9.48L98.77 9.48L98.77 8.95Q96.96 8.95 96.06 9.23Q95.16 9.52 95.16 10.32L95.16 10.32Q95.16 10.92 95.53 11.18Q95.90 11.44 96.63 11.44L96.63 11.44Z"></path></g><!----><!----></svg>